<mxfile host="Electron" modified="2024-06-18T14:09:37.193Z" agent="Mozilla/5.0 (Windows NT 10.0; Win64; x64) AppleWebKit/537.36 (KHTML, like Gecko) draw.io/24.1.0 Chrome/120.0.6099.109 Electron/28.1.0 Safari/537.36" etag="Qb4Cd5qALZGPnxzvtooL" version="24.1.0" type="device">
  <diagram name="第 1 页" id="bjtWop-n5cKtUt3j-fIe">
    <mxGraphModel dx="2571" dy="1176" grid="1" gridSize="10" guides="1" tooltips="1" connect="1" arrows="1" fold="1" page="1" pageScale="1" pageWidth="827" pageHeight="1169" math="0" shadow="0">
      <root>
        <mxCell id="0" />
        <mxCell id="1" parent="0" />
        <mxCell id="pOac4V7r2WCqBg1km9G0-1" value="&lt;font style=&quot;font-size: 18px;&quot;&gt;轮椅辅助控制系统&lt;/font&gt;" style="ellipse;whiteSpace=wrap;html=1;" vertex="1" parent="1">
          <mxGeometry x="350" y="70" width="170" height="80" as="geometry" />
        </mxCell>
        <mxCell id="pOac4V7r2WCqBg1km9G0-3" value="&lt;span style=&quot;font-size: 18px;&quot;&gt;头控模式&lt;/span&gt;" style="ellipse;whiteSpace=wrap;html=1;" vertex="1" parent="1">
          <mxGeometry x="-210" y="240" width="170" height="80" as="geometry" />
        </mxCell>
        <mxCell id="pOac4V7r2WCqBg1km9G0-4" value="&lt;span style=&quot;font-size: 18px;&quot;&gt;遥控模式&lt;/span&gt;" style="ellipse;whiteSpace=wrap;html=1;" vertex="1" parent="1">
          <mxGeometry x="50" y="240" width="170" height="80" as="geometry" />
        </mxCell>
        <mxCell id="pOac4V7r2WCqBg1km9G0-5" value="&lt;span style=&quot;font-size: 18px;&quot;&gt;跟随模式&lt;/span&gt;" style="ellipse;whiteSpace=wrap;html=1;" vertex="1" parent="1">
          <mxGeometry x="350" y="240" width="170" height="80" as="geometry" />
        </mxCell>
        <mxCell id="pOac4V7r2WCqBg1km9G0-6" value="&lt;span style=&quot;font-size: 18px;&quot;&gt;障碍规避&lt;/span&gt;" style="ellipse;whiteSpace=wrap;html=1;" vertex="1" parent="1">
          <mxGeometry x="650" y="240" width="170" height="80" as="geometry" />
        </mxCell>
        <mxCell id="pOac4V7r2WCqBg1km9G0-7" value="&lt;span style=&quot;font-size: 18px;&quot;&gt;过速检测&lt;/span&gt;" style="ellipse;whiteSpace=wrap;html=1;" vertex="1" parent="1">
          <mxGeometry x="940" y="240" width="170" height="80" as="geometry" />
        </mxCell>
        <mxCell id="pOac4V7r2WCqBg1km9G0-8" value="&lt;span style=&quot;font-size: 18px;&quot;&gt;模块间通信&lt;/span&gt;" style="ellipse;whiteSpace=wrap;html=1;" vertex="1" parent="1">
          <mxGeometry x="440" y="800" width="170" height="80" as="geometry" />
        </mxCell>
        <mxCell id="pOac4V7r2WCqBg1km9G0-10" value="" style="endArrow=classic;html=1;rounded=0;exitX=0.5;exitY=1;exitDx=0;exitDy=0;entryX=0.5;entryY=0;entryDx=0;entryDy=0;" edge="1" parent="1" source="pOac4V7r2WCqBg1km9G0-1" target="pOac4V7r2WCqBg1km9G0-3">
          <mxGeometry width="50" height="50" relative="1" as="geometry">
            <mxPoint x="390" y="440" as="sourcePoint" />
            <mxPoint x="440" y="390" as="targetPoint" />
          </mxGeometry>
        </mxCell>
        <mxCell id="pOac4V7r2WCqBg1km9G0-11" value="" style="endArrow=classic;html=1;rounded=0;entryX=0.5;entryY=0;entryDx=0;entryDy=0;" edge="1" parent="1" target="pOac4V7r2WCqBg1km9G0-4">
          <mxGeometry width="50" height="50" relative="1" as="geometry">
            <mxPoint x="430" y="150" as="sourcePoint" />
            <mxPoint x="-5" y="250" as="targetPoint" />
          </mxGeometry>
        </mxCell>
        <mxCell id="pOac4V7r2WCqBg1km9G0-12" value="" style="endArrow=classic;html=1;rounded=0;entryX=0.5;entryY=0;entryDx=0;entryDy=0;" edge="1" parent="1" target="pOac4V7r2WCqBg1km9G0-5">
          <mxGeometry width="50" height="50" relative="1" as="geometry">
            <mxPoint x="435" y="150" as="sourcePoint" />
            <mxPoint x="5" y="260" as="targetPoint" />
          </mxGeometry>
        </mxCell>
        <mxCell id="pOac4V7r2WCqBg1km9G0-13" value="" style="endArrow=classic;html=1;rounded=0;entryX=0.5;entryY=0;entryDx=0;entryDy=0;" edge="1" parent="1" target="pOac4V7r2WCqBg1km9G0-6">
          <mxGeometry width="50" height="50" relative="1" as="geometry">
            <mxPoint x="440" y="150" as="sourcePoint" />
            <mxPoint x="15" y="270" as="targetPoint" />
          </mxGeometry>
        </mxCell>
        <mxCell id="pOac4V7r2WCqBg1km9G0-14" value="" style="endArrow=classic;html=1;rounded=0;exitX=0.5;exitY=1;exitDx=0;exitDy=0;entryX=0.5;entryY=0;entryDx=0;entryDy=0;" edge="1" parent="1" source="pOac4V7r2WCqBg1km9G0-1" target="pOac4V7r2WCqBg1km9G0-7">
          <mxGeometry width="50" height="50" relative="1" as="geometry">
            <mxPoint x="475" y="190" as="sourcePoint" />
            <mxPoint x="25" y="280" as="targetPoint" />
          </mxGeometry>
        </mxCell>
        <mxCell id="pOac4V7r2WCqBg1km9G0-15" value="&lt;span style=&quot;font-size: 18px;&quot;&gt;障碍物探测&lt;/span&gt;" style="ellipse;whiteSpace=wrap;html=1;" vertex="1" parent="1">
          <mxGeometry x="710" y="330" width="170" height="80" as="geometry" />
        </mxCell>
        <mxCell id="pOac4V7r2WCqBg1km9G0-16" value="" style="endArrow=classic;html=1;rounded=0;exitX=0.5;exitY=1;exitDx=0;exitDy=0;entryX=0.5;entryY=0;entryDx=0;entryDy=0;" edge="1" parent="1" source="pOac4V7r2WCqBg1km9G0-6" target="pOac4V7r2WCqBg1km9G0-15">
          <mxGeometry width="50" height="50" relative="1" as="geometry">
            <mxPoint x="390" y="440" as="sourcePoint" />
            <mxPoint x="673" y="430" as="targetPoint" />
          </mxGeometry>
        </mxCell>
        <mxCell id="pOac4V7r2WCqBg1km9G0-17" value="&lt;span style=&quot;font-size: 18px;&quot;&gt;目标识别&lt;/span&gt;" style="ellipse;whiteSpace=wrap;html=1;" vertex="1" parent="1">
          <mxGeometry x="450" y="330" width="170" height="80" as="geometry" />
        </mxCell>
        <mxCell id="pOac4V7r2WCqBg1km9G0-18" value="" style="endArrow=classic;html=1;rounded=0;exitX=0.5;exitY=1;exitDx=0;exitDy=0;entryX=0.5;entryY=0;entryDx=0;entryDy=0;" edge="1" parent="1" source="pOac4V7r2WCqBg1km9G0-5" target="pOac4V7r2WCqBg1km9G0-17">
          <mxGeometry width="50" height="50" relative="1" as="geometry">
            <mxPoint x="440" y="320" as="sourcePoint" />
            <mxPoint x="485" y="410" as="targetPoint" />
          </mxGeometry>
        </mxCell>
        <mxCell id="pOac4V7r2WCqBg1km9G0-21" value="" style="endArrow=classic;html=1;rounded=0;exitX=0.5;exitY=1;exitDx=0;exitDy=0;entryX=0.5;entryY=0;entryDx=0;entryDy=0;" edge="1" parent="1" source="pOac4V7r2WCqBg1km9G0-3" target="pOac4V7r2WCqBg1km9G0-26">
          <mxGeometry width="50" height="50" relative="1" as="geometry">
            <mxPoint x="500" y="400" as="sourcePoint" />
            <mxPoint x="435" y="649.9999999999998" as="targetPoint" />
          </mxGeometry>
        </mxCell>
        <mxCell id="pOac4V7r2WCqBg1km9G0-22" value="" style="endArrow=classic;html=1;rounded=0;exitX=0.5;exitY=1;exitDx=0;exitDy=0;entryX=0.5;entryY=0;entryDx=0;entryDy=0;" edge="1" parent="1" source="pOac4V7r2WCqBg1km9G0-4" target="pOac4V7r2WCqBg1km9G0-26">
          <mxGeometry width="50" height="50" relative="1" as="geometry">
            <mxPoint x="-5" y="330" as="sourcePoint" />
            <mxPoint x="435" y="649.9999999999998" as="targetPoint" />
          </mxGeometry>
        </mxCell>
        <mxCell id="pOac4V7r2WCqBg1km9G0-23" value="" style="endArrow=classic;html=1;rounded=0;exitX=0.5;exitY=1;exitDx=0;exitDy=0;entryX=0.5;entryY=0;entryDx=0;entryDy=0;" edge="1" parent="1" source="pOac4V7r2WCqBg1km9G0-5" target="pOac4V7r2WCqBg1km9G0-26">
          <mxGeometry width="50" height="50" relative="1" as="geometry">
            <mxPoint x="5" y="340" as="sourcePoint" />
            <mxPoint x="435" y="649.9999999999998" as="targetPoint" />
          </mxGeometry>
        </mxCell>
        <mxCell id="pOac4V7r2WCqBg1km9G0-24" value="" style="endArrow=classic;html=1;rounded=0;exitX=0.5;exitY=1;exitDx=0;exitDy=0;entryX=0.5;entryY=0;entryDx=0;entryDy=0;" edge="1" parent="1" source="pOac4V7r2WCqBg1km9G0-6" target="pOac4V7r2WCqBg1km9G0-26">
          <mxGeometry width="50" height="50" relative="1" as="geometry">
            <mxPoint x="15" y="350" as="sourcePoint" />
            <mxPoint x="435" y="649.9999999999998" as="targetPoint" />
          </mxGeometry>
        </mxCell>
        <mxCell id="pOac4V7r2WCqBg1km9G0-25" value="" style="endArrow=classic;html=1;rounded=0;exitX=0.5;exitY=1;exitDx=0;exitDy=0;entryX=0.5;entryY=0;entryDx=0;entryDy=0;" edge="1" parent="1" source="pOac4V7r2WCqBg1km9G0-7" target="pOac4V7r2WCqBg1km9G0-26">
          <mxGeometry width="50" height="50" relative="1" as="geometry">
            <mxPoint x="25" y="360" as="sourcePoint" />
            <mxPoint x="435" y="649.9999999999998" as="targetPoint" />
          </mxGeometry>
        </mxCell>
        <mxCell id="pOac4V7r2WCqBg1km9G0-26" value="&lt;font style=&quot;font-size: 18px;&quot;&gt;系统基础功能&lt;/font&gt;" style="rounded=0;whiteSpace=wrap;html=1;" vertex="1" parent="1">
          <mxGeometry x="345" y="630" width="180" height="80" as="geometry" />
        </mxCell>
        <mxCell id="pOac4V7r2WCqBg1km9G0-27" value="&lt;span style=&quot;font-size: 18px;&quot;&gt;舵机控制&lt;/span&gt;" style="ellipse;whiteSpace=wrap;html=1;" vertex="1" parent="1">
          <mxGeometry x="250" y="800" width="170" height="80" as="geometry" />
        </mxCell>
        <mxCell id="pOac4V7r2WCqBg1km9G0-28" value="" style="endArrow=classic;html=1;rounded=0;entryX=0.5;entryY=0;entryDx=0;entryDy=0;exitX=0.5;exitY=1;exitDx=0;exitDy=0;" edge="1" parent="1" source="pOac4V7r2WCqBg1km9G0-26" target="pOac4V7r2WCqBg1km9G0-27">
          <mxGeometry width="50" height="50" relative="1" as="geometry">
            <mxPoint x="500" y="540" as="sourcePoint" />
            <mxPoint x="550" y="490" as="targetPoint" />
          </mxGeometry>
        </mxCell>
        <mxCell id="pOac4V7r2WCqBg1km9G0-29" value="" style="endArrow=classic;html=1;rounded=0;exitX=0.5;exitY=1;exitDx=0;exitDy=0;entryX=0.5;entryY=0;entryDx=0;entryDy=0;" edge="1" parent="1" source="pOac4V7r2WCqBg1km9G0-26" target="pOac4V7r2WCqBg1km9G0-8">
          <mxGeometry width="50" height="50" relative="1" as="geometry">
            <mxPoint x="445" y="720" as="sourcePoint" />
            <mxPoint x="550" y="810" as="targetPoint" />
          </mxGeometry>
        </mxCell>
        <mxCell id="pOac4V7r2WCqBg1km9G0-30" value="&lt;span style=&quot;font-size: 18px;&quot;&gt;头部姿态识别&lt;/span&gt;" style="ellipse;whiteSpace=wrap;html=1;" vertex="1" parent="1">
          <mxGeometry x="-310" y="330" width="170" height="80" as="geometry" />
        </mxCell>
        <mxCell id="pOac4V7r2WCqBg1km9G0-31" value="" style="endArrow=classic;html=1;rounded=0;exitX=0.5;exitY=1;exitDx=0;exitDy=0;entryX=0.5;entryY=0;entryDx=0;entryDy=0;" edge="1" parent="1" source="pOac4V7r2WCqBg1km9G0-3" target="pOac4V7r2WCqBg1km9G0-30">
          <mxGeometry width="50" height="50" relative="1" as="geometry">
            <mxPoint x="500" y="540" as="sourcePoint" />
            <mxPoint x="550" y="490" as="targetPoint" />
          </mxGeometry>
        </mxCell>
      </root>
    </mxGraphModel>
  </diagram>
</mxfile>
